<svg id="Tokens" xmlns="http://www.w3.org/2000/svg" width="1500" height="1500" viewBox="0 0 1500 1500">
  <defs>
    <style>
      .cls-1 {
        fill: none;
        stroke: #fff;
        stroke-width: 20px;
      }

      .cls-2 {
        fill: #fff;
        fill-rule: evenodd;
      }
    </style>
  </defs>
  <circle id="Player_1_-_Black" data-name="Player 1 - Black" cx="750" cy="750" r="750"/>
  <circle class="cls-1" cx="750" cy="750" r="600"/>
  <path id="Rounded_Rectangle_1_copy_71" data-name="Rounded Rectangle 1 copy 71" class="cls-2" d="M810.111,27.49l6.154,0.538a6.912,6.912,0,0,1,6.283,7.487l-7.511,85.85a6.913,6.913,0,0,1-7.487,6.283l-6.155-.539a6.911,6.911,0,0,1-6.282-7.487l7.511-85.85A6.91,6.91,0,0,1,810.111,27.49Zm62.742,7.988,6.084,1.073a6.911,6.911,0,0,1,5.606,8.006l-14.965,84.869a6.912,6.912,0,0,1-8.006,5.606l-6.084-1.073a6.911,6.911,0,0,1-5.606-8.006l14.965-84.869A6.911,6.911,0,0,1,872.853,35.478ZM934.66,48.9l5.968,1.6a6.911,6.911,0,0,1,4.886,8.464l-22.3,83.242a6.911,6.911,0,0,1-8.464,4.887l-5.968-1.6a6.911,6.911,0,0,1-4.887-8.464L926.2,53.791A6.911,6.911,0,0,1,934.66,48.9Zm60.4,18.762,5.808,2.113a6.921,6.921,0,0,1,4.13,8.858l-29.477,80.981a6.911,6.911,0,0,1-8.858,4.131l-5.8-2.113a6.912,6.912,0,0,1-4.131-8.858L986.2,71.8A6.911,6.911,0,0,1,995.062,67.666ZM1053.6,91.621l5.6,2.611a6.912,6.912,0,0,1,3.34,9.185l-36.42,78.1a6.9,6.9,0,0,1-9.18,3.343l-5.6-2.611a6.916,6.916,0,0,1-3.35-9.184l36.42-78.1A6.919,6.919,0,0,1,1053.6,91.621Zm56.22,28.966,5.36,3.089a6.912,6.912,0,0,1,2.52,9.441l-43.08,74.632a6.913,6.913,0,0,1-9.44,2.53l-5.36-3.089a6.912,6.912,0,0,1-2.52-9.441l43.08-74.632A6.912,6.912,0,0,1,1109.82,120.587Zm53.49,33.756,5.06,3.544a6.908,6.908,0,0,1,1.7,9.625l-49.43,70.593a6.907,6.907,0,0,1-9.62,1.7l-5.07-3.544a6.914,6.914,0,0,1-1.69-9.625l49.43-70.593A6.907,6.907,0,0,1,1163.31,154.343Zm50.34,38.289,4.74,3.971a6.918,6.918,0,0,1,.85,9.737l-55.39,66.016a6.916,6.916,0,0,1-9.74.852l-4.73-3.971a6.91,6.91,0,0,1-.86-9.737l55.4-66.016A6.9,6.9,0,0,1,1213.65,192.632Zm46.82,42.531,4.37,4.369a6.908,6.908,0,0,1,0,9.773l-60.94,60.938a6.908,6.908,0,0,1-9.77,0l-4.37-4.369a6.909,6.909,0,0,1,0-9.774l60.93-60.937A6.919,6.919,0,0,1,1260.47,235.163Zm42.93,46.45,3.97,4.732a6.918,6.918,0,0,1-.85,9.737l-66.02,55.394a6.916,6.916,0,0,1-9.74-.852l-3.97-4.733a6.917,6.917,0,0,1,.85-9.736l66.02-55.394A6.915,6.915,0,0,1,1303.4,281.613Zm38.71,50.014,3.55,5.06a6.909,6.909,0,0,1-1.7,9.626l-70.59,49.429a6.915,6.915,0,0,1-9.63-1.7l-3.54-5.061a6.908,6.908,0,0,1,1.7-9.625l70.59-49.429A6.9,6.9,0,0,1,1342.11,331.627Zm34.21,53.2,3.09,5.35a6.906,6.906,0,0,1-2.53,9.441l-74.63,43.089a6.912,6.912,0,0,1-9.44-2.53l-3.09-5.35a6.915,6.915,0,0,1,2.53-9.441l74.63-43.089A6.907,6.907,0,0,1,1376.32,384.825Zm29.45,55.977,2.61,5.6a6.913,6.913,0,0,1-3.34,9.185l-78.11,36.42a6.905,6.905,0,0,1-9.18-3.343l-2.61-5.6a6.9,6.9,0,0,1,3.34-9.184l78.1-36.421A6.92,6.92,0,0,1,1405.77,440.8Zm24.45,58.331,2.11,5.805a6.9,6.9,0,0,1-4.13,8.858l-80.98,29.475a6.918,6.918,0,0,1-8.86-4.131l-2.11-5.8a6.92,6.92,0,0,1,4.13-8.858L1421.36,495A6.91,6.91,0,0,1,1430.22,499.133Zm19.28,60.239,1.6,5.968a6.916,6.916,0,0,1-4.89,8.464l-83.24,22.305a6.916,6.916,0,0,1-8.47-4.887l-1.6-5.968a6.917,6.917,0,0,1,4.89-8.464l83.24-22.3A6.917,6.917,0,0,1,1449.5,559.372Zm13.95,61.691,1.07,6.084a6.915,6.915,0,0,1-5.6,8.006l-84.87,14.965a6.913,6.913,0,0,1-8.01-5.606l-1.07-6.084a6.915,6.915,0,0,1,5.6-8.006l84.87-14.965A6.913,6.913,0,0,1,1463.45,621.063Zm8.52,62.672,0.54,6.154a6.912,6.912,0,0,1-6.28,7.487l-85.85,7.511a6.913,6.913,0,0,1-7.49-6.282l-0.54-6.155a6.913,6.913,0,0,1,6.28-7.487l85.85-7.511A6.909,6.909,0,0,1,1471.97,683.735Zm3.03,63.176v6.178a6.908,6.908,0,0,1-6.91,6.911h-86.18a6.908,6.908,0,0,1-6.91-6.911v-6.178a6.908,6.908,0,0,1,6.91-6.911h86.18A6.908,6.908,0,0,1,1475,746.911Zm-2.49,63.2-0.54,6.154a6.909,6.909,0,0,1-7.49,6.283l-85.85-7.511a6.913,6.913,0,0,1-6.28-7.487l0.54-6.155a6.913,6.913,0,0,1,7.49-6.282l85.85,7.511A6.912,6.912,0,0,1,1472.51,810.111Zm-7.99,62.742-1.07,6.084a6.913,6.913,0,0,1-8.01,5.606l-84.87-14.965a6.915,6.915,0,0,1-5.6-8.006l1.07-6.084a6.913,6.913,0,0,1,8.01-5.606l84.87,14.965A6.915,6.915,0,0,1,1464.52,872.853ZM1451.1,934.66l-1.6,5.968a6.917,6.917,0,0,1-8.47,4.886l-83.24-22.3a6.917,6.917,0,0,1-4.89-8.464l1.6-5.968a6.916,6.916,0,0,1,8.47-4.887l83.24,22.305A6.916,6.916,0,0,1,1451.1,934.66Zm-18.77,60.4-2.11,5.808a6.92,6.92,0,0,1-8.86,4.13l-80.98-29.477a6.92,6.92,0,0,1-4.13-8.858l2.11-5.8a6.918,6.918,0,0,1,8.86-4.131L1428.2,986.2A6.9,6.9,0,0,1,1432.33,995.062Zm-23.95,58.538-2.61,5.6a6.92,6.92,0,0,1-9.19,3.34l-78.1-36.42a6.9,6.9,0,0,1-3.34-9.18l2.61-5.6a6.91,6.91,0,0,1,9.18-3.35l78.11,36.42A6.92,6.92,0,0,1,1408.38,1053.6Zm-28.97,56.22-3.09,5.36a6.908,6.908,0,0,1-9.44,2.52l-74.63-43.08a6.915,6.915,0,0,1-2.53-9.44l3.09-5.36a6.912,6.912,0,0,1,9.44-2.52l74.63,43.08A6.907,6.907,0,0,1,1379.41,1109.82Zm-33.75,53.49-3.55,5.06a6.9,6.9,0,0,1-9.62,1.7l-70.59-49.43a6.9,6.9,0,0,1-1.7-9.62l3.54-5.07a6.92,6.92,0,0,1,9.63-1.69l70.59,49.43A6.9,6.9,0,0,1,1345.66,1163.31Zm-38.29,50.34-3.97,4.74a6.923,6.923,0,0,1-9.74.85l-66.02-55.39a6.923,6.923,0,0,1-.85-9.74l3.97-4.73a6.915,6.915,0,0,1,9.74-.86l66.02,55.4A6.91,6.91,0,0,1,1307.37,1213.65Zm-42.53,46.82-4.37,4.37a6.917,6.917,0,0,1-9.78,0l-60.93-60.94a6.9,6.9,0,0,1,0-9.77l4.37-4.37a6.9,6.9,0,0,1,9.77,0l60.94,60.93A6.917,6.917,0,0,1,1264.84,1260.47Zm-46.45,42.93-4.74,3.97a6.91,6.91,0,0,1-9.73-.85l-55.4-66.02a6.915,6.915,0,0,1,.86-9.74l4.73-3.97a6.923,6.923,0,0,1,9.74.85l55.39,66.02A6.923,6.923,0,0,1,1218.39,1303.4Zm-50.02,38.71-5.06,3.55a6.9,6.9,0,0,1-9.62-1.7l-49.43-70.59a6.92,6.92,0,0,1,1.69-9.63l5.07-3.54a6.9,6.9,0,0,1,9.62,1.7l49.43,70.59A6.9,6.9,0,0,1,1168.37,1342.11Zm-53.19,34.21-5.36,3.09a6.907,6.907,0,0,1-9.44-2.53l-43.08-74.63a6.912,6.912,0,0,1,2.52-9.44l5.36-3.09a6.915,6.915,0,0,1,9.44,2.53l43.08,74.63A6.908,6.908,0,0,1,1115.18,1376.32Zm-55.98,29.45-5.6,2.61a6.92,6.92,0,0,1-9.19-3.34l-36.42-78.11a6.91,6.91,0,0,1,3.35-9.18l5.6-2.61a6.9,6.9,0,0,1,9.18,3.34l36.42,78.1A6.92,6.92,0,0,1,1059.2,1405.77Zm-58.33,24.45-5.808,2.11a6.9,6.9,0,0,1-8.858-4.13l-29.475-80.98a6.918,6.918,0,0,1,4.131-8.86l5.8-2.11a6.92,6.92,0,0,1,8.858,4.13L1005,1421.36A6.92,6.92,0,0,1,1000.87,1430.22Zm-60.242,19.28-5.968,1.6a6.916,6.916,0,0,1-8.464-4.89l-22.305-83.24a6.916,6.916,0,0,1,4.887-8.47l5.968-1.6a6.917,6.917,0,0,1,8.464,4.89l22.3,83.24A6.917,6.917,0,0,1,940.628,1449.5Zm-61.691,13.95-6.084,1.07a6.915,6.915,0,0,1-8.006-5.6l-14.965-84.87a6.913,6.913,0,0,1,5.606-8.01l6.084-1.07a6.915,6.915,0,0,1,8.006,5.6l14.965,84.87A6.913,6.913,0,0,1,878.937,1463.45Zm-62.672,8.52-6.154.54a6.912,6.912,0,0,1-7.487-6.28l-7.511-85.85a6.913,6.913,0,0,1,6.282-7.49l6.155-.54a6.913,6.913,0,0,1,7.487,6.28l7.511,85.85A6.909,6.909,0,0,1,816.265,1471.97ZM753.089,1475h-6.178a6.908,6.908,0,0,1-6.911-6.91v-86.18a6.908,6.908,0,0,1,6.911-6.91h6.178a6.908,6.908,0,0,1,6.911,6.91v86.18A6.908,6.908,0,0,1,753.089,1475Zm-63.2-2.49-6.154-.54a6.909,6.909,0,0,1-6.283-7.49l7.511-85.85a6.913,6.913,0,0,1,7.487-6.28l6.155,0.54a6.913,6.913,0,0,1,6.282,7.49l-7.511,85.85A6.912,6.912,0,0,1,689.889,1472.51Zm-62.742-7.99-6.084-1.07a6.913,6.913,0,0,1-5.606-8.01l14.965-84.87a6.915,6.915,0,0,1,8.006-5.6l6.084,1.07a6.913,6.913,0,0,1,5.606,8.01l-14.965,84.87A6.915,6.915,0,0,1,627.147,1464.52ZM565.34,1451.1l-5.968-1.6a6.917,6.917,0,0,1-4.886-8.47l22.3-83.24a6.917,6.917,0,0,1,8.464-4.89l5.968,1.6a6.916,6.916,0,0,1,4.887,8.47L573.8,1446.21A6.916,6.916,0,0,1,565.34,1451.1Zm-60.4-18.77-5.805-2.11a6.91,6.91,0,0,1-4.131-8.86l29.475-80.98a6.92,6.92,0,0,1,8.858-4.13l5.8,2.11a6.918,6.918,0,0,1,4.131,8.86L513.8,1428.2A6.9,6.9,0,0,1,504.938,1432.33ZM446.4,1408.38l-5.6-2.61a6.92,6.92,0,0,1-3.343-9.19l36.421-78.1a6.9,6.9,0,0,1,9.184-3.34l5.6,2.61a6.905,6.905,0,0,1,3.343,9.18l-36.42,78.11A6.913,6.913,0,0,1,446.4,1408.38Zm-56.226-28.97-5.35-3.09a6.907,6.907,0,0,1-2.53-9.44l43.089-74.63a6.915,6.915,0,0,1,9.441-2.53l5.35,3.09a6.912,6.912,0,0,1,2.53,9.44l-43.089,74.63A6.906,6.906,0,0,1,390.175,1379.41Zm-53.488-33.75-5.06-3.55a6.9,6.9,0,0,1-1.7-9.62l49.429-70.59a6.908,6.908,0,0,1,9.625-1.7l5.061,3.54a6.915,6.915,0,0,1,1.7,9.63l-49.429,70.59A6.909,6.909,0,0,1,336.687,1345.66Zm-50.342-38.29-4.732-3.97a6.915,6.915,0,0,1-.852-9.74l55.394-66.02a6.917,6.917,0,0,1,9.736-.85l4.733,3.97a6.916,6.916,0,0,1,.852,9.74l-55.394,66.02A6.918,6.918,0,0,1,286.345,1307.37Zm-46.813-42.53-4.369-4.37a6.919,6.919,0,0,1,0-9.78l60.937-60.93a6.909,6.909,0,0,1,9.774,0l4.369,4.37a6.908,6.908,0,0,1,0,9.77l-60.938,60.94A6.908,6.908,0,0,1,239.532,1264.84ZM196.6,1218.39l-3.971-4.74a6.9,6.9,0,0,1,.852-9.73l66.016-55.4a6.91,6.91,0,0,1,9.737.86l3.971,4.73a6.916,6.916,0,0,1-.852,9.74l-66.016,55.39A6.918,6.918,0,0,1,196.6,1218.39Zm-38.716-50.02-3.544-5.06a6.907,6.907,0,0,1,1.7-9.62l70.593-49.43a6.914,6.914,0,0,1,9.625,1.69l3.544,5.07a6.907,6.907,0,0,1-1.7,9.62l-70.593,49.43A6.908,6.908,0,0,1,157.887,1168.37Zm-34.211-53.19-3.089-5.36a6.912,6.912,0,0,1,2.53-9.44l74.632-43.08a6.912,6.912,0,0,1,9.441,2.52l3.089,5.36a6.913,6.913,0,0,1-2.53,9.44l-74.632,43.08A6.912,6.912,0,0,1,123.676,1115.18ZM94.232,1059.2l-2.611-5.6a6.919,6.919,0,0,1,3.343-9.19l78.1-36.42a6.916,6.916,0,0,1,9.184,3.35l2.611,5.6a6.9,6.9,0,0,1-3.343,9.18l-78.1,36.42A6.912,6.912,0,0,1,94.232,1059.2Zm-24.453-58.33-2.113-5.808A6.911,6.911,0,0,1,71.8,986.2l80.981-29.475a6.912,6.912,0,0,1,8.858,4.131l2.113,5.8a6.911,6.911,0,0,1-4.131,8.858L78.637,1005A6.921,6.921,0,0,1,69.779,1000.87ZM50.5,940.628l-1.6-5.968a6.911,6.911,0,0,1,4.887-8.464l83.242-22.305a6.911,6.911,0,0,1,8.464,4.887l1.6,5.968a6.911,6.911,0,0,1-4.887,8.464l-83.241,22.3A6.911,6.911,0,0,1,50.5,940.628ZM36.551,878.937l-1.073-6.084a6.911,6.911,0,0,1,5.606-8.006l84.869-14.965a6.911,6.911,0,0,1,8.006,5.606l1.073,6.084a6.912,6.912,0,0,1-5.606,8.006L44.557,884.543A6.911,6.911,0,0,1,36.551,878.937Zm-8.523-62.672-0.538-6.154a6.91,6.91,0,0,1,6.282-7.487l85.85-7.511a6.911,6.911,0,0,1,7.487,6.282l0.539,6.155a6.913,6.913,0,0,1-6.283,7.487l-85.85,7.511A6.912,6.912,0,0,1,28.028,816.265ZM25,753.089v-6.178A6.911,6.911,0,0,1,31.911,740h86.178A6.911,6.911,0,0,1,125,746.911v6.178A6.911,6.911,0,0,1,118.089,760H31.911A6.911,6.911,0,0,1,25,753.089Zm2.49-63.2,0.538-6.154a6.912,6.912,0,0,1,7.487-6.283l85.85,7.511a6.913,6.913,0,0,1,6.283,7.487l-0.539,6.155a6.911,6.911,0,0,1-7.487,6.282l-85.85-7.511A6.91,6.91,0,0,1,27.49,689.889Zm7.988-62.742,1.073-6.084a6.911,6.911,0,0,1,8.006-5.606l84.869,14.965a6.912,6.912,0,0,1,5.606,8.006l-1.073,6.084a6.911,6.911,0,0,1-8.006,5.606L41.084,635.153A6.911,6.911,0,0,1,35.478,627.147ZM48.9,565.34l1.6-5.968a6.911,6.911,0,0,1,8.464-4.886l83.242,22.3a6.911,6.911,0,0,1,4.887,8.464l-1.6,5.968a6.911,6.911,0,0,1-8.464,4.887L53.791,573.8A6.911,6.911,0,0,1,48.9,565.34Zm18.762-60.4,2.113-5.805A6.911,6.911,0,0,1,78.637,495l80.981,29.475a6.911,6.911,0,0,1,4.131,8.858l-2.113,5.8a6.912,6.912,0,0,1-8.858,4.131L71.8,513.8A6.911,6.911,0,0,1,67.666,504.938ZM91.621,446.4l2.611-5.6a6.912,6.912,0,0,1,9.185-3.343l78.1,36.421a6.91,6.91,0,0,1,3.343,9.184l-2.611,5.6a6.911,6.911,0,0,1-9.184,3.343l-78.1-36.42A6.912,6.912,0,0,1,91.621,446.4Zm28.966-56.226,3.089-5.35a6.911,6.911,0,0,1,9.441-2.53l74.632,43.089a6.912,6.912,0,0,1,2.53,9.441l-3.089,5.35a6.912,6.912,0,0,1-9.441,2.53l-74.632-43.089A6.912,6.912,0,0,1,120.587,390.175Zm33.756-53.488,3.544-5.06a6.91,6.91,0,0,1,9.625-1.7l70.593,49.429a6.912,6.912,0,0,1,1.7,9.625l-3.544,5.061a6.91,6.91,0,0,1-9.625,1.7L156.04,346.313A6.913,6.913,0,0,1,154.343,336.687Zm38.289-50.342,3.971-4.732a6.911,6.911,0,0,1,9.737-.852l66.016,55.394a6.911,6.911,0,0,1,.852,9.736l-3.971,4.733a6.912,6.912,0,0,1-9.737.852l-66.016-55.394A6.912,6.912,0,0,1,192.632,286.345Zm42.531-46.813,4.369-4.369a6.91,6.91,0,0,1,9.773,0L310.243,296.1a6.913,6.913,0,0,1,0,9.774l-4.369,4.369a6.913,6.913,0,0,1-9.774,0l-60.937-60.938A6.91,6.91,0,0,1,235.163,239.532Zm46.45-42.929,4.732-3.971a6.912,6.912,0,0,1,9.737.852L351.476,259.5a6.912,6.912,0,0,1-.852,9.737l-4.733,3.971a6.911,6.911,0,0,1-9.736-.852L280.761,206.34A6.911,6.911,0,0,1,281.613,196.6Zm50.014-38.716,5.06-3.544a6.913,6.913,0,0,1,9.626,1.7l49.429,70.593a6.91,6.91,0,0,1-1.7,9.625l-5.061,3.544a6.912,6.912,0,0,1-9.625-1.7L329.93,167.512A6.91,6.91,0,0,1,331.627,157.887Zm53.2-34.211,5.35-3.089a6.912,6.912,0,0,1,9.441,2.53l43.089,74.632a6.912,6.912,0,0,1-2.53,9.441l-5.35,3.089a6.912,6.912,0,0,1-9.441-2.53L382.3,133.117A6.911,6.911,0,0,1,384.825,123.676ZM440.8,94.232l5.6-2.611a6.912,6.912,0,0,1,9.185,3.343l36.42,78.1a6.911,6.911,0,0,1-3.343,9.184l-5.6,2.611a6.91,6.91,0,0,1-9.184-3.343l-36.421-78.1A6.912,6.912,0,0,1,440.8,94.232Zm58.331-24.453,5.805-2.113A6.911,6.911,0,0,1,513.8,71.8l29.475,80.981a6.912,6.912,0,0,1-4.131,8.858l-5.8,2.113a6.911,6.911,0,0,1-8.858-4.131L495,78.637A6.911,6.911,0,0,1,499.133,69.779ZM559.372,50.5l5.968-1.6a6.911,6.911,0,0,1,8.464,4.887l22.305,83.242a6.911,6.911,0,0,1-4.887,8.464l-5.968,1.6a6.911,6.911,0,0,1-8.464-4.887l-22.3-83.241A6.911,6.911,0,0,1,559.372,50.5Zm61.691-13.952,6.084-1.073a6.911,6.911,0,0,1,8.006,5.606l14.965,84.869a6.911,6.911,0,0,1-5.606,8.006l-6.084,1.073a6.912,6.912,0,0,1-8.006-5.606L615.457,44.557A6.911,6.911,0,0,1,621.063,36.551Zm62.672-8.523,6.154-.538a6.91,6.91,0,0,1,7.487,6.282l7.511,85.85a6.911,6.911,0,0,1-6.282,7.487l-6.155.539a6.913,6.913,0,0,1-7.487-6.283l-7.511-85.85A6.912,6.912,0,0,1,683.735,28.028ZM746.911,25h6.178A6.911,6.911,0,0,1,760,31.911v86.178A6.911,6.911,0,0,1,753.089,125h-6.178A6.911,6.911,0,0,1,740,118.089V31.911A6.911,6.911,0,0,1,746.911,25Z"/>
</svg>
